<svg width="38" height="38" viewBox="0 0 38 38" fill="none" xmlns="http://www.w3.org/2000/svg">
<rect width="38" height="38" rx="8" fill="white"/>
<circle cx="19" cy="19" r="10" stroke="#1C66E5" stroke-width="2"/>
<path d="M15.75 18C16.4404 18 17 17.4404 17 16.75C17 16.0596 16.4404 15.5 15.75 15.5C15.0596 15.5 14.5 16.0596 14.5 16.75C14.5 17.4404 15.0596 18 15.75 18Z" fill="#1C66E5"/>
<path d="M23.5 16.75C23.5 17.4404 22.9404 18 22.25 18C21.5596 18 21 17.4404 21 16.75C21 16.0596 21.5596 15.5 22.25 15.5C22.9404 15.5 23.5 16.0596 23.5 16.75Z" fill="#1C66E5"/>
<path d="M19.0002 22.0001C20.1114 22.0001 21.1168 21.547 21.8416 20.8154L23.1461 22.3373C22.0688 23.3674 20.6084 24.0001 19.0002 24.0001C17.3918 24.0001 15.9313 23.3673 14.854 22.3371L16.1584 20.8152C16.8833 21.5469 17.8888 22.0001 19.0002 22.0001Z" fill="#1C66E5"/>
<path fill-rule="evenodd" clip-rule="evenodd" d="M30 19C30 25.0751 25.0751 30 19 30C12.9249 30 8 25.0751 8 19C8 12.9249 12.9249 8 19 8C25.0751 8 30 12.9249 30 19ZM28 19C28 23.9706 23.9706 28 19 28C14.0294 28 10 23.9706 10 19C10 14.0294 14.0294 10 19 10C23.9706 10 28 14.0294 28 19Z" fill="#1C66E5"/>
</svg>
