<svg width="38" height="38" viewBox="0 0 38 38" fill="none" xmlns="http://www.w3.org/2000/svg">
<rect width="38" height="38" rx="8" fill="white"/>
<path fill-rule="evenodd" clip-rule="evenodd" d="M14 13C14 10.2386 16.2386 8 19 8C21.7614 8 24 10.2386 24 13V19.5C24 22.2614 21.7614 24.5 19 24.5C16.2386 24.5 14 22.2614 14 19.5V13ZM22 13V19.5C22 21.1569 20.6569 22.5 19 22.5C17.3431 22.5 16 21.1569 16 19.5V13C16 11.3431 17.3431 10 19 10C20.6569 10 22 11.3431 22 13Z" fill="#1C66E5"/>
<path d="M10 18V19.5C10 24.1326 13.5 27.9476 18 28.4451V31H20V28.4451C24.5 27.9476 28 24.1326 28 19.5V18H26V19.5C26 23.366 22.866 26.5 19 26.5C15.134 26.5 12 23.366 12 19.5V18H10Z" fill="#1C66E5"/>
</svg>
